<?xml version="1.0" standalone="no"?>
<!DOCTYPE svg PUBLIC "-//W3C//DTD SVG 20010904//EN"
 "http://www.w3.org/TR/2001/REC-SVG-20010904/DTD/svg10.dtd">
<svg version="1.0" xmlns="http://www.w3.org/2000/svg"
 width="428.000000pt" height="428.000000pt" viewBox="0 0 428.000000 428.000000"
 preserveAspectRatio="xMidYMid meet">
<metadata>
Created by potrace 1.14, written by Peter Selinger 2001-2017
</metadata>
<g transform="translate(0.000000,428.000000) scale(0.100000,-0.100000)"
fill="#000000" stroke="none">
<path d="M1997 4244 c-1 -1 -74 -5 -162 -9 -88 -3 -176 -8 -195 -10 -19 -2
-71 -6 -115 -10 -171 -15 -206 -20 -385 -50 -403 -68 -712 -170 -810 -268 -42
-41 -92 -139 -133 -257 -28 -80 -65 -216 -73 -265 -3 -16 -10 -47 -15 -68 -6
-21 -12 -50 -14 -65 -2 -15 -8 -52 -14 -82 -6 -30 -13 -73 -15 -95 -3 -22 -10
-71 -15 -110 -6 -38 -13 -101 -16 -140 -3 -38 -8 -86 -10 -105 -14 -113 -20
-305 -20 -605 1 -307 3 -387 21 -598 7 -81 31 -285 44 -367 6 -36 12 -79 15
-95 2 -17 12 -64 20 -105 9 -41 18 -83 20 -92 11 -54 60 -220 82 -282 65 -181
117 -249 237 -305 110 -52 314 -118 450 -145 11 -3 66 -14 121 -25 103 -21
283 -49 370 -58 28 -3 77 -9 110 -13 66 -10 1298 -8 1330 2 11 3 49 9 85 12
36 4 75 8 87 10 12 3 43 8 70 12 26 3 57 8 68 10 10 2 37 6 60 10 57 8 287 60
371 83 164 46 314 113 373 166 109 99 219 444 280 885 17 120 27 202 37 320
26 282 25 981 -1 1190 -1 14 -6 59 -10 100 -3 41 -8 86 -10 100 -2 14 -9 61
-15 105 -9 66 -37 227 -54 310 -49 244 -142 486 -215 562 -75 77 -329 174
-596 227 -75 15 -95 19 -146 31 -11 2 -53 9 -92 14 -40 6 -81 12 -92 15 -11 2
-49 7 -85 11 -36 3 -72 8 -80 10 -8 2 -53 7 -100 10 -47 4 -103 8 -125 11
-114 10 -630 25 -638 18z"/>
</g>
</svg>
