<?xml version="1.0" standalone="no"?>
<!DOCTYPE svg PUBLIC "-//W3C//DTD SVG 20010904//EN"
 "http://www.w3.org/TR/2001/REC-SVG-20010904/DTD/svg10.dtd">
<svg version="1.0" xmlns="http://www.w3.org/2000/svg"
 width="212.000000pt" height="212.000000pt" viewBox="0 0 212.000000 212.000000"
 preserveAspectRatio="xMidYMid meet">
<metadata>
Created by potrace 1.14, written by Peter Selinger 2001-2017
</metadata>
<g transform="translate(0.000000,212.000000) scale(0.100000,-0.100000)"
fill="#000000" stroke="none">
<path d="M1522 1764 c-173 -38 -361 -169 -444 -311 l-20 -34 -43 58 c-23 32
-51 66 -61 76 -11 9 -35 32 -54 51 -42 40 -109 78 -123 69 -6 -3 -7 -1 -3 5 3
6 -1 15 -11 20 -16 8 -26 8 -59 4 -12 -2 -15 -32 -2 -32 4 0 8 5 8 10 0 6 5
10 12 10 6 0 8 -3 5 -6 -3 -4 -2 -16 4 -27 7 -12 7 -17 1 -13 -14 9 -22 -20
-9 -33 6 -6 7 -11 2 -11 -6 0 -3 -5 5 -10 13 -8 12 -10 -3 -10 -11 0 -17 6
-15 16 2 10 -2 19 -7 21 -6 2 -11 -12 -12 -32 -1 -31 1 -34 16 -23 13 10 14
10 4 -2 -19 -21 -16 -29 10 -24 20 4 20 4 2 -5 -26 -11 -67 25 -44 40 8 5 9 9
3 9 -12 0 -13 38 -1 56 3 6 3 14 0 18 -12 11 -12 37 -1 30 7 -4 8 -2 4 4 -3 6
1 15 10 20 11 6 13 11 5 16 -6 4 -11 2 -11 -4 0 -6 -5 -8 -10 -5 -6 4 -7 12
-4 18 4 7 4 9 -1 5 -4 -4 -15 -2 -24 4 -11 9 -10 6 2 -9 18 -21 18 -21 -2 -28
-23 -7 -27 -20 -9 -31 7 -5 8 -3 3 6 -5 8 -3 11 5 8 15 -5 23 -38 9 -38 -5 0
-23 14 -41 30 -32 31 -49 40 -29 17 6 -8 7 -17 3 -21 -4 -4 0 -6 8 -4 15 3 16
-2 5 -37 -6 -19 -5 -19 7 1 13 20 38 22 38 3 0 -6 -4 -7 -10 -4 -5 3 -10 2
-10 -4 0 -5 4 -13 10 -16 5 -3 10 -1 10 6 0 16 13 3 16 -15 1 -8 -8 -13 -22
-13 -13 0 -21 3 -18 8 3 5 0 9 -5 9 -6 0 -10 -9 -8 -19 4 -25 27 -52 38 -45 5
3 19 -4 31 -16 12 -11 28 -18 36 -15 7 2 11 1 8 -4 -3 -5 4 -15 17 -24 72 -47
157 -168 188 -266 70 -228 -14 -464 -212 -597 -77 -52 -141 -74 -259 -89 -44
-6 -79 -41 -86 -87 -5 -29 -1 -41 23 -68 35 -39 71 -44 171 -23 182 38 333
133 440 278 24 33 45 60 47 60 2 0 23 -27 47 -60 25 -33 67 -79 94 -103 65
-57 71 -62 84 -62 5 0 10 -3 10 -7 0 -8 48 -33 63 -33 4 0 5 5 1 12 -4 7 -3 8
5 4 6 -4 9 -11 6 -16 -5 -8 45 -41 60 -40 3 0 6 0 8 -1 15 -5 45 -4 41 2 -2 4
1 9 8 12 7 2 4 3 -8 1 -17 -3 -20 2 -20 26 0 16 6 32 13 34 10 4 12 -2 8 -22
-5 -26 -5 -26 5 -4 7 16 7 30 -1 44 -8 16 -8 23 2 29 8 5 10 9 4 9 -5 0 -3 5
5 10 10 6 11 10 3 10 -7 0 -13 4 -13 10 0 5 8 7 18 4 14 -5 14 -4 2 4 -8 6
-18 8 -22 6 -4 -3 -8 0 -8 6 0 7 -8 9 -20 5 -12 -4 -19 -2 -18 3 2 6 -1 11 -7
11 -5 1 -11 -8 -11 -19 -1 -16 3 -19 20 -15 17 5 18 4 6 -4 -13 -10 -13 -11 0
-11 12 0 13 -2 1 -9 -11 -7 -11 -9 0 -13 9 -3 8 -6 -5 -11 -9 -4 -15 -3 -11 2
3 5 1 12 -5 16 -5 3 -10 2 -10 -2 0 -16 -39 -12 -51 5 -11 14 -11 15 1 4 20
-17 35 -15 20 3 -9 10 -9 15 -1 15 6 0 11 -4 11 -10 0 -5 5 -10 10 -10 11 0 7
41 -6 61 -4 8 -3 9 4 5 7 -4 12 -3 12 3 0 10 -38 27 -52 23 -4 -1 -5 5 -2 13
4 9 0 15 -10 15 -9 0 -16 5 -16 11 0 5 -6 7 -12 3 -7 -4 -10 -4 -6 1 4 4 -11
28 -32 53 -83 94 -131 235 -124 367 13 272 229 489 500 504 30 1 71 46 76 81
5 34 -20 83 -51 99 -26 14 -80 12 -159 -5z m-767 -84 c3 -5 1 -10 -4 -10 -6 0
-11 5 -11 10 0 6 2 10 4 10 3 0 8 -4 11 -10z m31 -46 c1 -9 0 -13 -4 -10 -3 4
-7 14 -8 22 -1 9 0 13 4 10 3 -4 7 -14 8 -22z m-31 -22 c-3 -3 -11 0 -18 7 -9
10 -8 11 6 5 10 -3 15 -9 12 -12z m85 12 c0 -8 -19 -13 -24 -6 -3 5 1 9 9 9 8
0 15 -2 15 -3z m-56 -22 c2 -4 -5 -9 -17 -9 -17 -2 -19 0 -7 7 18 12 18 12 24
2z m-121 -25 c7 4 6 -1 -2 -10 -11 -14 -17 -15 -28 -6 -11 10 -11 14 -1 20 7
5 15 4 16 -1 2 -6 9 -7 15 -3z m87 -17 c0 -5 -4 -10 -10 -10 -5 0 -10 5 -10
10 0 6 5 10 10 10 6 0 10 -4 10 -10z m17 -56 c-3 -3 -12 -4 -19 -1 -8 3 -5 6
6 6 11 1 17 -2 13 -5z m587 -902 c3 -5 -1 -9 -9 -9 -8 0 -12 4 -9 9 3 4 7 8 9
8 2 0 6 -4 9 -8z m-47 -51 c0 -11 -5 -18 -9 -15 -4 3 -5 11 -1 19 7 21 12 19
10 -4z m163 -32 c-6 -9 -7 -24 -4 -32 6 -17 -22 -31 -32 -15 -4 6 -3 8 4 4 6
-3 13 -2 16 3 9 14 -22 7 -37 -9 -10 -10 -9 -11 2 -5 11 6 13 4 8 -8 -4 -10
-1 -15 6 -13 7 1 9 1 4 -1 -4 -3 -4 -10 0 -16 12 -20 12 -38 0 -30 -7 4 -18 8
-25 9 -8 2 -17 6 -20 10 -4 4 1 4 10 1 10 -3 20 -2 23 3 4 6 1 10 -4 10 -6 0
-11 6 -11 14 0 7 -7 19 -15 26 -18 15 -9 34 12 26 28 -11 51 11 48 46 -3 29
-2 31 11 14 9 -13 10 -24 4 -37z m-127 26 c-3 -9 -8 -14 -10 -11 -3 3 -2 9 2
15 9 16 15 13 8 -4z m27 -54 c0 -3 -10 -12 -22 -20 -21 -13 -22 -13 -10 2 8 9
11 21 7 26 -3 7 0 8 9 5 9 -3 16 -9 16 -13z m30 -52 c0 -5 -5 -9 -11 -9 -5 0
-7 5 -4 10 3 6 1 10 -4 10 -6 0 -11 5 -11 11 0 8 5 8 15 -1 8 -7 15 -16 15
-21z"/>
<path d="M1395 480 c3 -5 8 -10 11 -10 2 0 4 5 4 10 0 6 -5 10 -11 10 -5 0 -7
-4 -4 -10z"/>
<path d="M622 1730 c7 -11 16 -20 20 -20 5 0 3 9 -4 20 -7 11 -16 20 -20 20
-5 0 -3 -9 4 -20z"/>
<path d="M590 1726 c0 -2 7 -7 16 -10 8 -3 12 -2 9 4 -6 10 -25 14 -25 6z"/>
<path d="M550 1666 c0 -2 7 -7 16 -10 8 -3 12 -2 9 4 -6 10 -25 14 -25 6z"/>
<path d="M690 1656 c6 -6 6 -14 -1 -23 -16 -18 -4 -16 15 3 21 21 20 30 -4 30
-13 0 -16 -4 -10 -10z"/>
<path d="M580 1600 c0 -5 5 -10 11 -10 5 0 7 5 4 10 -3 6 -8 10 -11 10 -2 0
-4 -4 -4 -10z"/>
<path d="M1495 500 c-3 -6 1 -7 9 -4 18 7 21 14 7 14 -6 0 -13 -4 -16 -10z"/>
<path d="M1520 395 c-11 -13 -11 -18 0 -28 10 -9 11 -9 6 1 -4 7 -2 19 4 27 7
8 10 15 7 15 -2 0 -10 -7 -17 -15z"/>
<path d="M1553 385 c0 -8 4 -12 9 -9 5 3 6 10 3 15 -9 13 -12 11 -12 -6z"/>
</g>
</svg>
