<svg width="24" height="24" viewBox="0 0 24 24" fill="none" xmlns="http://www.w3.org/2000/svg">
<circle cx="11.9" cy="11.9" r="11.9" fill="#F4AD19"/>
<path d="M14.8037 11.4543C15.4478 11.125 15.8508 10.5389 15.76 9.56321C15.6375 8.23024 14.5074 7.78056 13.0769 7.64806L13.0809 5.79715L11.9745 5.79314L11.9666 7.59587C11.6742 7.59587 11.3778 7.59988 11.0814 7.6039L11.0854 5.78912H9.97898L9.97503 7.64003C9.73399 7.64405 9.50086 7.64806 9.26772 7.64806V7.64405L7.74246 7.63602L7.73851 8.84051C7.73851 8.84051 8.55646 8.82847 8.5446 8.84051C8.99507 8.84051 9.13732 9.1055 9.18079 9.33436L9.17684 11.4422C9.20845 11.4422 9.24796 11.4422 9.29538 11.4503C9.25982 11.4503 9.2203 11.4503 9.17684 11.4503L9.16893 14.4013C9.14918 14.5458 9.0662 14.7747 8.75008 14.7747C8.76589 14.7867 7.94398 14.7707 7.94398 14.7707L7.71875 16.1157L9.16103 16.1197C9.42973 16.1197 9.69448 16.1277 9.95132 16.1277L9.94737 17.9987L11.0538 18.0027L11.0577 16.1518C11.3541 16.1598 11.6465 16.1639 11.9429 16.1639L11.9389 18.0067L13.0453 18.0107L13.0493 16.1438C14.9144 16.0394 16.2183 15.5656 16.3843 13.791C16.5226 12.3536 15.8627 11.7152 14.8037 11.4543ZM11.1051 8.92884C11.7295 8.92884 13.6973 8.73211 13.6934 10.0611C13.6894 11.3338 11.7255 11.1772 11.1012 11.1772L11.1051 8.92884ZM11.0893 14.7907L11.0972 12.3135C11.848 12.3135 14.2031 12.1007 14.1991 13.5621C14.1952 14.9553 11.8401 14.7907 11.0893 14.7907Z" fill="#FFEDCD"/>
</svg>
