<svg width="28" height="39" viewBox="0 0 28 39" fill="none" xmlns="http://www.w3.org/2000/svg">
<path fill-rule="evenodd" clip-rule="evenodd" d="M8.87766 0V6.486C8.87766 7.11948 8.62569 7.7288 8.17692 8.17686C7.72885 8.62564 7.11962 8.8776 6.48606 8.8776H5.42172e-05V36.6707C5.42172e-05 37.0932 0.168393 37.4989 0.467334 37.7978C0.766275 38.0968 1.17199 38.2651 1.59442 38.2651H26.4056C26.8288 38.2651 27.2338 38.0968 27.5334 37.7978C27.8324 37.4989 28 37.0932 28 36.6707V1.5945C28 1.17207 27.8324 0.766357 27.5334 0.467416C27.2338 0.168475 26.8288 0.000136933 26.4056 0.000136933L8.87766 0ZM3.98347 30.9044H16.8268C17.0468 30.9044 17.2254 30.7258 17.2254 30.5058C17.2254 30.2859 17.0468 30.1072 16.8268 30.1072H3.98347C3.76353 30.1072 3.58488 30.2859 3.58488 30.5058C3.58488 30.7258 3.76353 30.9044 3.98347 30.9044V30.9044ZM3.98347 26.3039H24.017C24.2373 26.3039 24.4156 26.1252 24.4156 25.9053C24.4156 25.6854 24.2373 25.5067 24.017 25.5067H3.98347C3.76353 25.5067 3.58488 25.6854 3.58488 25.9053C3.58488 26.1252 3.76353 26.3039 3.98347 26.3039ZM3.98347 21.7033H24.017C24.2373 21.7033 24.4156 21.5247 24.4156 21.3048C24.4156 21.0848 24.2373 20.9062 24.017 20.9062H3.98347C3.76353 20.9062 3.58488 21.0848 3.58488 21.3048C3.58488 21.5247 3.76353 21.7033 3.98347 21.7033ZM3.98347 17.1028H24.017C24.2373 17.1028 24.4156 16.9242 24.4156 16.7042C24.4156 16.4843 24.2373 16.3056 24.017 16.3056H3.98347C3.76353 16.3056 3.58488 16.4843 3.58488 16.7042C3.58488 16.9242 3.76353 17.1028 3.98347 17.1028ZM3.98347 12.5023H24.017C24.2373 12.5023 24.4156 12.3236 24.4156 12.1037C24.4156 11.8837 24.2373 11.7051 24.017 11.7051H3.98347C3.76353 11.7051 3.58488 11.8837 3.58488 12.1037C3.58488 12.3236 3.76353 12.5023 3.98347 12.5023ZM0 8.08038L8.08038 0V6.486C8.08038 6.90844 7.91204 7.31415 7.6131 7.61309C7.31416 7.91203 6.90844 8.08037 6.48601 8.08037L0 8.08038ZM13.2871 5.80197H24.0167C24.237 5.80197 24.4153 5.62332 24.4153 5.40338C24.4153 5.18416 24.237 5.00479 24.0167 5.00479H13.2871C13.0671 5.00479 12.8885 5.18416 12.8885 5.40338C12.8885 5.62332 13.0671 5.80197 13.2871 5.80197Z" fill="#E0DBFF"/>
<path d="M20.225 21.865C16.3002 21.865 13.1189 25.0463 13.1189 28.9711C13.1189 32.8959 16.3002 36.0772 20.225 36.0772C24.1498 36.0772 27.3311 32.8959 27.3311 28.9711C27.3311 25.0463 24.1498 21.865 20.225 21.865ZM24.5816 25.6932C24.552 25.8003 24.4832 25.9115 24.3885 26.0064L18.0094 32.3856L15.8521 33.3439L16.7962 31.2065L17.2563 30.7406L23.16 24.8374L23.3425 24.6857C23.5169 24.5784 23.6966 24.5701 23.7923 24.6658L23.8888 24.7621L24.5306 25.4043C24.597 25.4706 24.6153 25.5733 24.5816 25.6932Z" fill="#9A8FDB"/>
</svg>
