<?xml version="1.0" encoding="utf-8"?>
<!-- Generator: Adobe Illustrator 23.0.1, SVG Export Plug-In . SVG Version: 6.00 Build 0)  -->
<svg version="1.1" id="Layer_1" xmlns="http://www.w3.org/2000/svg" xmlns:xlink="http://www.w3.org/1999/xlink" x="0px" y="0px"
	 viewBox="0 0 35 35" style="enable-background:new 0 0 35 35;" xml:space="preserve">
<style type="text/css">
	.st0{fill:#F45726;}
</style>
<path class="st0" d="M30,5.9c-2.4-2.4-5.4-4-8.7-4.7c-3.3-0.7-6.7-0.3-9.8,1C8.4,3.5,5.7,5.7,3.8,8.5C2,11.3,1,14.6,1,18
	c0,3.4,1,6.7,2.9,9.4c1.9,2.8,4.5,5,7.6,6.3c3.1,1.3,6.5,1.6,9.8,1c3.3-0.7,6.3-2.3,8.7-4.7c2.1-2.1,3.6-4.7,4.4-7.6
	c0.8-2.9,0.8-5.9,0-8.8C33.6,10.7,32.1,8,30,5.9L30,5.9z M7.8,7.8c2.4-2.4,5.5-3.8,8.8-4.1c3.3-0.3,6.6,0.5,9.4,2.4L6.1,26
	c-1.9-2.8-2.7-6.1-2.4-9.4C4,13.3,5.5,10.2,7.8,7.8L7.8,7.8z M28.1,28.1c-2.4,2.4-5.5,3.8-8.8,4.1c-3.3,0.3-6.6-0.5-9.4-2.4
	L29.9,9.9c1.9,2.8,2.7,6.1,2.4,9.4C31.9,22.6,30.5,25.7,28.1,28.1L28.1,28.1z"/>
</svg>
