<svg width="48" height="38" viewBox="0 0 48 38" fill="none" xmlns="http://www.w3.org/2000/svg">
<circle cx="23" cy="4" r="4" fill="#9A8FDB"/>
<rect y="6" width="48" height="32" rx="5" fill="#E0DBFF"/>
<path d="M15.8228 21.4827C15.627 21.3848 15.4312 21.4501 15.2681 21.5806C14.6154 22.168 13.7669 22.527 12.8531 22.527C11.9394 22.527 11.1235 22.2006 10.5035 21.6459C10.373 21.5153 10.1772 21.5153 10.014 21.5806C7.76224 22.6249 6.16317 24.844 6 27.4221H20C19.8042 24.7461 18.1399 22.4943 15.8228 21.4827Z" fill="white"/>
<path d="M12.8204 21.8741C14.4425 21.8741 15.7574 20.5592 15.7574 18.9371C15.7574 17.315 14.4425 16 12.8204 16C11.1983 16 9.8833 17.315 9.8833 18.9371C9.8833 20.5592 11.1983 21.8741 12.8204 21.8741Z" fill="white"/>
<rect x="24.1479" y="16" width="16.8521" height="2.53846" rx="1.26923" fill="white"/>
<rect x="24.1479" y="20.2307" width="16.8521" height="2.53846" rx="1.26923" fill="white"/>
<rect x="24.1479" y="24.4614" width="16.8521" height="2.53846" rx="1.26923" fill="white"/>
</svg>
