<svg width="27" height="40" viewBox="0 0 27 40" fill="none" xmlns="http://www.w3.org/2000/svg">
<path d="M0 5C0 2.23858 2.23858 0 5 0H22C24.7614 0 27 2.23858 27 5V32H0V5Z" fill="#E0DBFF"/>
<path d="M16.6921 16.0841C16.4391 15.9576 16.1861 16.0419 15.9752 16.2106C15.1319 16.9696 14.0356 17.4334 12.8549 17.4334C11.6743 17.4334 10.6201 17.0118 9.81896 16.2949C9.65029 16.1263 9.39729 16.1263 9.18646 16.2106C6.27698 17.5599 4.21083 20.4272 4 23.7584H22.0894C21.8364 20.3007 19.6859 17.3913 16.6921 16.0841Z" fill="white"/>
<path d="M12.8126 16.5899C14.9085 16.5899 16.6075 14.8909 16.6075 12.795C16.6075 10.6991 14.9085 9 12.8126 9C10.7166 9 9.01758 10.6991 9.01758 12.795C9.01758 14.8909 10.7166 16.5899 12.8126 16.5899Z" fill="white"/>
<path d="M0 31H27V35C27 37.7614 24.7614 40 22 40H5C2.23858 40 0 37.7614 0 35V31Z" fill="#9A8FDB"/>
<rect x="8" y="35" width="12" height="2" rx="1" fill="white"/>
</svg>
