<?xml version="1.0" encoding="utf-8"?>
<!-- Generator: Adobe Illustrator 23.0.1, SVG Export Plug-In . SVG Version: 6.00 Build 0)  -->
<svg version="1.1" id="Layer_1" xmlns="http://www.w3.org/2000/svg" xmlns:xlink="http://www.w3.org/1999/xlink" x="0px" y="0px"
	 viewBox="0 0 29 24" style="enable-background:new 0 0 29 24;" xml:space="preserve">
<style type="text/css">
	.st0{fill:#06CBF6;}
</style>
<path class="st0" d="M14.5,18.7c1.2,0,2.4,0.1,3.6,0.4L15,23.3L14.5,24L14,23.3l-3.1-4.1C12.1,18.9,13.3,18.7,14.5,18.7z M7.2,14.2
	l2.7,3.7c3-0.9,6.2-0.9,9.2,0l2.7-3.7c-2.3-1-4.8-1.5-7.3-1.5C12,12.8,9.5,13.3,7.2,14.2L7.2,14.2z M14.5,6.7c3.8,0,7.5,1,10.8,2.9
	l-2.6,3.4c-2.6-1.2-5.4-1.8-8.2-1.8s-5.6,0.6-8.2,1.8L3.7,9.7C7,7.8,10.7,6.8,14.5,6.7z M24.5,9.8c-3.1-1.7-6.5-2.5-10-2.6
	c-3.5,0-6.9,0.9-10,2.6l1.9,2.6c2.5-1.1,5.3-1.7,8.1-1.7s5.5,0.6,8.1,1.7L24.5,9.8z M29,4.7l-2.9,3.8c-3.5-2.1-7.5-3.3-11.6-3.3
	c-4.1,0-8.1,1.2-11.6,3.3L0,4.7C4.5,1.7,9.4,0,14.5,0C19.6,0,24.5,1.7,29,4.7L29,4.7z M28.2,4.9c-4.1-2.8-8.8-4.3-13.7-4.3
	c-4.9,0-9.7,1.5-13.7,4.3l2.2,3c3.5-2,7.5-3.1,11.5-3.1c4,0,8,1.1,11.5,3.1L28.2,4.9z"/>
</svg>
