<svg width="80" height="80" viewBox="0 0 80 80" fill="none" xmlns="http://www.w3.org/2000/svg">
<circle cx="40" cy="40" r="40" fill="#F7F5FF"/>
<mask id="mask0_684_2" style="mask-type:alpha" maskUnits="userSpaceOnUse" x="0" y="0" width="80" height="80">
<circle cx="40" cy="40" r="40" fill="#F7F5FF"/>
</mask>
<g mask="url(#mask0_684_2)">
<path d="M55.0088 49.9449C54.0104 49.4457 53.012 49.7785 52.18 50.4441C48.8521 53.4393 44.5257 55.2697 39.8666 55.2697C35.2075 55.2697 31.0475 53.6057 27.886 50.7769C27.2204 50.1113 26.222 50.1113 25.39 50.4441C13.9086 55.7689 5.75508 67.0839 4.9231 80.2293H76.3077C75.3093 66.5847 66.823 55.1033 55.0088 49.9449Z" fill="#2E1D93"/>
<path d="M39.7003 51.9419C47.9712 51.9419 54.6761 45.237 54.6761 36.9661C54.6761 28.6952 47.9712 21.9903 39.7003 21.9903C31.4294 21.9903 24.7245 28.6952 24.7245 36.9661C24.7245 45.237 31.4294 51.9419 39.7003 51.9419Z" fill="#2E1D93"/>
<path d="M53.0126 64.2556V68.2492C53.0126 68.4156 53.0126 68.582 53.179 68.7484L55.8413 71.2444C56.1741 71.5771 56.5069 71.5771 56.8397 71.2444L59.5021 68.7484C59.6685 68.582 59.6685 68.4156 59.6685 68.2492V64.2556C59.6685 63.9229 59.3357 63.5901 59.0029 63.5901H53.6782C53.3454 63.5901 53.0126 63.9229 53.0126 64.2556Z" fill="#725EED"/>
</g>
</svg>
