<svg width="32" height="32" viewBox="0 0 32 32" fill="none" xmlns="http://www.w3.org/2000/svg">
<rect width="32" height="32" rx="8" fill="#9B51E0"/>
<rect width="22" height="24" transform="translate(4 4)" fill="#9B51E0"/>
<path d="M21.4167 26H8.58333C7.57081 26 6.75 25.1046 6.75 24V10C6.75 8.89543 7.57081 8 8.58333 8H10.4167V6H12.25V8H17.75V6H19.5833V8H21.4167C22.4292 8 23.25 8.89543 23.25 10V24C23.25 25.1046 22.4292 26 21.4167 26ZM8.58333 14V24H21.4167V14H8.58333ZM8.58333 10V12H21.4167V10H8.58333ZM15.9167 22H10.4167V16H15.9167V22Z" fill="white"/>
</svg>
