<svg width="182" height="181" viewBox="0 0 182 181" fill="none" xmlns="http://www.w3.org/2000/svg">
<path d="M91.3262 181H90.6738C48.4898 180.892 20.2222 172.139 14.3513 166.736C8.15412 161.225 0 132.696 0 90.5524C0 48.5165 8.15412 19.8801 14.3513 14.369C20.2222 8.96591 48.5986 0.21292 90.6738 0.104858H91.3262C133.51 0.21292 161.778 8.96591 167.649 14.369C173.846 19.8801 182 48.5165 182 90.5524C182 132.588 173.846 161.225 167.649 166.736C161.778 172.247 133.51 181 91.3262 181Z" fill="url(#paint0_linear_201_314)"/>
<path d="M91.3262 181H90.6738C48.4898 180.892 20.2222 172.139 14.3513 166.736C8.15412 161.225 0 132.696 0 90.5524C0 48.5165 8.15412 19.8801 14.3513 14.369C20.2222 8.96591 48.5986 0.21292 90.6738 0.104858H91.3262C133.51 0.21292 161.778 8.96591 167.649 14.369C173.846 19.8801 182 48.5165 182 90.5524C182 132.588 173.846 161.225 167.649 166.736C161.778 172.247 133.51 181 91.3262 181Z" fill="white"/>
<path d="M132.965 95.952L129.486 53.6999H108.502C108.502 53.6999 92.5203 86.2265 91.1069 90.657H90.8895L74.0376 53.6999H52.9456L49.4665 90.3328L46.5311 127.506H59.3602C64.905 127.506 67.0794 125.129 67.5143 119.293C67.5143 119.293 69.6888 85.2539 69.3626 80.2831H69.58L70.2324 82.5524C71.1021 85.5781 83.0615 114.647 83.0615 114.647H98.8261C98.8261 114.647 110.786 86.0103 112.308 80.2831H112.525L114.373 119.293C114.808 125.129 117.091 127.506 122.527 127.506H135.357L132.965 95.952Z" fill="#0361F0"/>
<defs>
<linearGradient id="paint0_linear_201_314" x1="14.3707" y1="14.3976" x2="166.728" y2="167.685" gradientUnits="userSpaceOnUse">
<stop stop-color="#05C2FF"/>
<stop offset="1" stop-color="#0357EE"/>
</linearGradient>
</defs>
</svg>
