<svg width="1440" height="819" viewBox="0 0 1440 819" fill="none" xmlns="http://www.w3.org/2000/svg">
<rect width="1440" height="819" fill="white"/>
<rect width="1440" height="819" fill="#1E1265"/>
<g opacity="0.15">
<mask id="mask0_640_89" style="mask-type:alpha" maskUnits="userSpaceOnUse" x="0" y="0" width="1440" height="819">
<rect width="1440" height="819" fill="#1E1265"/>
</mask>
<g mask="url(#mask0_640_89)">
<path d="M137.272 330.555L121.204 376.091H65.437L81.5043 330.555H137.272Z" fill="#271884"/>
<path d="M156.005 224.136H94.4014L132.084 114.907H193.687L156.005 224.136Z" fill="#4320A8"/>
<path d="M168.614 250.867L139.794 330.555H137.272L146.71 303.896H90.9431L81.5045 330.555H78.2622L107.082 250.867H168.614Z" fill="#2E1D93"/>
<path d="M94.8519 223.906L93.875 224.368L106.51 251.07L107.486 250.608L94.8519 223.906Z" fill="#271884"/>
<path d="M155.917 222.797L154.94 223.26L168.13 251.134L169.107 250.672L155.917 222.797Z" fill="#271884"/>
<path d="M119.331 66.2005L70.0484 208.861H8.51709L57.7998 66.2005H60.6098L50.0903 96.8941H105.858L116.377 66.2005H119.331Z" fill="#271884"/>
<path d="M133.237 16.9178L116.377 66.2005H60.6099L77.4697 16.9178H133.237Z" fill="#2E1D93"/>
<path d="M51.5313 307.715H-10L18.8203 228.026H80.3516L51.5313 307.715Z" fill="#271884"/>
<path d="M8.98601 208.615L8.03418 209.127L18.3416 228.29L19.2934 227.778L8.98601 208.615Z" fill="#271884"/>
<path d="M70.5236 208.624L69.5718 209.136L79.8792 228.3L80.831 227.788L70.5236 208.624Z" fill="#271884"/>
<path d="M45.2716 646.637L29.2043 692.173H-26.563L-10.4957 646.637H45.2716Z" fill="#271884"/>
<path d="M64.0047 540.218H2.40137L40.0839 430.989H101.687L64.0047 540.218Z" fill="#F25625"/>
<path d="M76.6138 566.949L47.7935 646.637H45.2717L54.7104 619.978H-1.05686L-10.4955 646.637H-13.7378L15.0825 566.949H76.6138Z" fill="#2E1D93"/>
<path d="M2.8519 539.988L1.875 540.45L14.5096 567.152L15.4865 566.69L2.8519 539.988Z" fill="#271884"/>
<path d="M63.9173 538.879L62.9404 539.342L76.1297 567.216L77.1066 566.754L63.9173 538.879Z" fill="#271884"/>
<path d="M27.3311 382.283L-21.9516 524.943H-83.4829L-34.2002 382.283H-31.3902L-41.9097 412.976H13.8576L24.377 382.283H27.3311Z" fill="#271884"/>
<path d="M41.237 333L24.3771 382.283H-31.3901L-14.5303 333H41.237Z" fill="#2E1D93"/>
<path d="M353.584 271.637L337.517 317.173H281.75L297.817 271.637H353.584Z" fill="#271884"/>
<path d="M372.317 165.218H310.714L348.396 55.989H410L372.317 165.218Z" fill="#271884"/>
<path d="M384.926 191.949L356.106 271.637H353.584L363.023 244.978H307.256L297.817 271.637H294.575L323.395 191.949H384.926Z" fill="#2E1D93"/>
<path d="M311.164 164.988L310.188 165.45L322.822 192.152L323.799 191.69L311.164 164.988Z" fill="#271884"/>
<path d="M372.23 163.879L371.253 164.342L384.442 192.216L385.419 191.754L372.23 163.879Z" fill="#271884"/>
<path d="M335.644 7.28271L286.361 149.943H224.83L274.112 7.28271H276.922L266.403 37.9763H322.17L332.689 7.28271H335.644Z" fill="#271884"/>
<path d="M349.549 -42L332.69 7.28269H276.922L293.782 -42H349.549Z" fill="#2E1D93"/>
<path d="M267.844 248.797H206.312L235.133 169.109H296.664L267.844 248.797Z" fill="#271884"/>
<path d="M225.299 149.697L224.347 150.209L234.654 169.372L235.606 168.861L225.299 149.697Z" fill="#271884"/>
<path d="M286.836 149.707L285.884 150.219L296.192 169.382L297.143 168.87L286.836 149.707Z" fill="#271884"/>
<path d="M761.584 275.637L745.517 321.173H689.75L705.817 275.637H761.584Z" fill="#271884"/>
<path d="M780.317 169.218H718.714L756.396 59.989H818L780.317 169.218Z" fill="#271884"/>
<path d="M792.926 195.949L764.106 275.637H761.584L771.023 248.978H715.256L705.817 275.637H702.575L731.395 195.949H792.926Z" fill="#4320A8"/>
<path d="M719.164 168.988L718.188 169.45L730.822 196.152L731.799 195.69L719.164 168.988Z" fill="#271884"/>
<path d="M780.23 167.879L779.253 168.342L792.442 196.216L793.419 195.754L780.23 167.879Z" fill="#271884"/>
<path d="M743.644 11.2827L694.361 153.943H632.83L682.112 11.2827H684.922L674.403 41.9763H730.17L740.689 11.2827H743.644Z" fill="#271884"/>
<path d="M757.549 -38L740.69 11.2827H684.922L701.782 -38H757.549Z" fill="#2E1D93"/>
<path d="M675.844 252.797H614.312L643.133 173.109H704.664L675.844 252.797Z" fill="#271884"/>
<path d="M633.299 153.697L632.347 154.209L642.654 173.372L643.606 172.861L633.299 153.697Z" fill="#271884"/>
<path d="M694.836 153.707L693.884 154.219L704.192 173.382L705.143 172.87L694.836 153.707Z" fill="#271884"/>
<path d="M1169.58 279.637L1153.52 325.173H1097.75L1113.82 279.637H1169.58Z" fill="#271884"/>
<path d="M1188.32 173.218H1126.71L1164.4 63.989H1226L1188.32 173.218Z" fill="#271884"/>
<path d="M1200.93 199.949L1172.11 279.637H1169.58L1179.02 252.978H1123.26L1113.82 279.637H1110.57L1139.39 199.949H1200.93Z" fill="#F25625"/>
<path d="M1127.16 172.988L1126.19 173.45L1138.82 200.152L1139.8 199.69L1127.16 172.988Z" fill="#271884"/>
<path d="M1188.23 171.879L1187.25 172.342L1200.44 200.216L1201.42 199.754L1188.23 171.879Z" fill="#271884"/>
<path d="M1151.64 15.2827L1102.36 157.943H1040.83L1090.11 15.2827H1092.92L1082.4 45.9763H1138.17L1148.69 15.2827H1151.64Z" fill="#271884"/>
<path d="M1165.55 -34L1148.69 15.2827H1092.92L1109.78 -34H1165.55Z" fill="#2E1D93"/>
<path d="M1083.84 256.797H1022.31L1051.13 177.109H1112.66L1083.84 256.797Z" fill="#271884"/>
<path d="M1041.3 157.697L1040.35 158.209L1050.65 177.372L1051.61 176.861L1041.3 157.697Z" fill="#271884"/>
<path d="M1102.84 157.707L1101.88 158.219L1112.19 177.382L1113.14 176.87L1102.84 157.707Z" fill="#271884"/>
<path d="M563.584 271.637L547.517 317.173H491.75L507.817 271.637H563.584Z" fill="#271884"/>
<path d="M582.317 165.218H520.714L558.396 55.989H620L582.317 165.218Z" fill="#271884"/>
<path d="M594.926 191.949L566.106 271.637H563.584L573.023 244.978H517.256L507.817 271.637H504.575L533.395 191.949H594.926Z" fill="#2E1D93"/>
<path d="M521.164 164.988L520.188 165.45L532.822 192.152L533.799 191.69L521.164 164.988Z" fill="#271884"/>
<path d="M582.23 163.879L581.253 164.342L594.442 192.216L595.419 191.754L582.23 163.879Z" fill="#271884"/>
<path d="M545.644 7.28271L496.361 149.943H434.83L484.112 7.28271H486.922L476.403 37.9763H532.17L542.689 7.28271H545.644Z" fill="#F25625"/>
<path d="M559.549 -42L542.69 7.28269H486.922L503.782 -42H559.549Z" fill="#2E1D93"/>
<path d="M477.844 248.797H416.312L445.133 169.109H506.664L477.844 248.797Z" fill="#271884"/>
<path d="M435.299 149.697L434.347 150.209L444.654 169.372L445.606 168.861L435.299 149.697Z" fill="#271884"/>
<path d="M496.836 149.707L495.884 150.219L506.192 169.382L507.143 168.87L496.836 149.707Z" fill="#271884"/>
<path d="M971.584 275.637L955.517 321.173H899.75L915.817 275.637H971.584Z" fill="#271884"/>
<path d="M990.317 169.218H928.714L966.396 59.989H1028L990.317 169.218Z" fill="#271884"/>
<path d="M1002.93 195.949L974.106 275.637H971.584L981.023 248.978H925.256L915.817 275.637H912.575L941.395 195.949H1002.93Z" fill="#2E1D93"/>
<path d="M929.164 168.988L928.188 169.45L940.822 196.152L941.799 195.69L929.164 168.988Z" fill="#271884"/>
<path d="M990.23 167.879L989.253 168.342L1002.44 196.216L1003.42 195.754L990.23 167.879Z" fill="#271884"/>
<path d="M953.644 11.2827L904.361 153.943H842.83L892.112 11.2827H894.922L884.403 41.9763H940.17L950.689 11.2827H953.644Z" fill="#271884"/>
<path d="M967.549 -38L950.69 11.2827H894.922L911.782 -38H967.549Z" fill="#2E1D93"/>
<path d="M885.844 252.797H824.312L853.133 173.109H914.664L885.844 252.797Z" fill="#271884"/>
<path d="M843.299 153.697L842.347 154.209L852.654 173.372L853.606 172.861L843.299 153.697Z" fill="#271884"/>
<path d="M904.836 153.707L903.884 154.219L914.192 173.382L915.143 172.87L904.836 153.707Z" fill="#271884"/>
<path d="M1379.58 279.637L1363.52 325.173H1307.75L1323.82 279.637H1379.58Z" fill="#271884"/>
<path d="M1398.32 173.218H1336.71L1374.4 63.989H1436L1398.32 173.218Z" fill="#271884"/>
<path d="M1410.93 199.949L1382.11 279.637H1379.58L1389.02 252.978H1333.26L1323.82 279.637H1320.57L1349.39 199.949H1410.93Z" fill="#2E1D93"/>
<path d="M1337.16 172.988L1336.19 173.45L1348.82 200.152L1349.8 199.69L1337.16 172.988Z" fill="#271884"/>
<path d="M1398.23 171.879L1397.25 172.342L1410.44 200.216L1411.42 199.754L1398.23 171.879Z" fill="#271884"/>
<path d="M1361.64 15.2827L1312.36 157.943H1250.83L1300.11 15.2827H1302.92L1292.4 45.9763H1348.17L1358.69 15.2827H1361.64Z" fill="#271884"/>
<path d="M1375.55 -34L1358.69 15.2827H1302.92L1319.78 -34H1375.55Z" fill="#2E1D93"/>
<path d="M1293.84 256.797H1232.31L1261.13 177.109H1322.66L1293.84 256.797Z" fill="#271884"/>
<path d="M1251.3 157.697L1250.35 158.209L1260.65 177.372L1261.61 176.861L1251.3 157.697Z" fill="#271884"/>
<path d="M1312.84 157.707L1311.88 158.219L1322.19 177.382L1323.14 176.87L1312.84 157.707Z" fill="#271884"/>
<path d="M261.272 581.637L245.204 627.173H189.437L205.504 581.637H261.272Z" fill="#06CBF6"/>
<path d="M280.005 475.218H218.401L256.084 365.989H317.687L280.005 475.218Z" fill="#271884"/>
<path d="M292.614 501.949L263.794 581.637H261.272L270.71 554.978H214.943L205.504 581.637H202.262L231.082 501.949H292.614Z" fill="#2E1D93"/>
<path d="M218.852 474.988L217.875 475.45L230.51 502.152L231.486 501.69L218.852 474.988Z" fill="#271884"/>
<path d="M279.917 473.879L278.94 474.342L292.13 502.216L293.107 501.754L279.917 473.879Z" fill="#271884"/>
<path d="M243.331 317.283L194.048 459.943H132.517L181.8 317.283H184.61L174.09 347.976H229.858L240.377 317.283H243.331Z" fill="#271884"/>
<path d="M257.237 268L240.377 317.283H184.61L201.47 268H257.237Z" fill="#2E1D93"/>
<path d="M175.531 558.797H114L142.82 479.109H204.352L175.531 558.797Z" fill="#271884"/>
<path d="M132.986 459.697L132.034 460.209L142.342 479.373L143.293 478.861L132.986 459.697Z" fill="#271884"/>
<path d="M194.524 459.707L193.572 460.219L203.879 479.382L204.831 478.87L194.524 459.707Z" fill="#271884"/>
<path d="M669.272 585.637L653.204 631.173H597.437L613.504 585.637H669.272Z" fill="#271884"/>
<path d="M688.005 479.218H626.401L664.084 369.989H725.687L688.005 479.218Z" fill="#271884"/>
<path d="M700.614 505.949L671.794 585.637H669.272L678.71 558.978H622.943L613.504 585.637H610.262L639.082 505.949H700.614Z" fill="#06CBF6"/>
<path d="M626.852 478.988L625.875 479.45L638.51 506.152L639.486 505.69L626.852 478.988Z" fill="#271884"/>
<path d="M687.917 477.879L686.94 478.342L700.13 506.216L701.107 505.754L687.917 477.879Z" fill="#271884"/>
<path d="M651.331 321.283L602.048 463.943H540.517L589.8 321.283H592.61L582.09 351.976H637.858L648.377 321.283H651.331Z" fill="#271884"/>
<path d="M665.237 272L648.377 321.283H592.61L609.47 272H665.237Z" fill="#2E1D93"/>
<path d="M583.531 562.797H522L550.82 483.109H612.352L583.531 562.797Z" fill="#271884"/>
<path d="M540.986 463.697L540.034 464.209L550.342 483.373L551.293 482.861L540.986 463.697Z" fill="#271884"/>
<path d="M602.524 463.707L601.572 464.219L611.879 483.382L612.831 482.87L602.524 463.707Z" fill="#271884"/>
<path d="M1077.27 589.637L1061.2 635.173H1005.44L1021.5 589.637H1077.27Z" fill="#271884"/>
<path d="M1096 483.218H1034.4L1072.08 373.989H1133.69L1096 483.218Z" fill="#271884"/>
<path d="M1108.61 509.949L1079.79 589.637H1077.27L1086.71 562.978H1030.94L1021.5 589.637H1018.26L1047.08 509.949H1108.61Z" fill="#2E1D93"/>
<path d="M1034.85 482.988L1033.88 483.45L1046.51 510.152L1047.49 509.69L1034.85 482.988Z" fill="#271884"/>
<path d="M1095.92 481.879L1094.94 482.342L1108.13 510.216L1109.11 509.754L1095.92 481.879Z" fill="#271884"/>
<path d="M1059.33 325.283L1010.05 467.943H948.517L997.8 325.283H1000.61L990.09 355.976H1045.86L1056.38 325.283H1059.33Z" fill="#271884"/>
<path d="M1073.24 276L1056.38 325.283H1000.61L1017.47 276H1073.24Z" fill="#2E1D93"/>
<path d="M991.531 566.797H930L958.82 487.109H1020.35L991.531 566.797Z" fill="#271884"/>
<path d="M948.986 467.697L948.034 468.209L958.342 487.373L959.293 486.861L948.986 467.697Z" fill="#271884"/>
<path d="M1010.52 467.707L1009.57 468.219L1019.88 487.382L1020.83 486.87L1010.52 467.707Z" fill="#271884"/>
<path d="M180.005 801.218H118.401L156.084 691.989H217.687L180.005 801.218Z" fill="#271884"/>
<path d="M118.852 800.988L117.875 801.45L130.51 828.152L131.486 827.69L118.852 800.988Z" fill="#271884"/>
<path d="M179.917 799.879L178.94 800.342L192.13 828.216L193.107 827.754L179.917 799.879Z" fill="#271884"/>
<path d="M143.331 643.283L94.0484 785.943H32.5171L81.7998 643.283H84.6098L74.0903 673.976H129.858L140.377 643.283H143.331Z" fill="#271884"/>
<path d="M157.237 594L140.377 643.283H84.6099L101.47 594H157.237Z" fill="#2E1D93"/>
<path d="M75.5313 884.797H14L42.8203 805.109H104.352L75.5313 884.797Z" fill="#271884"/>
<path d="M32.986 785.697L32.0342 786.209L42.3416 805.373L43.2934 804.861L32.986 785.697Z" fill="#271884"/>
<path d="M94.5236 785.707L93.5718 786.219L103.879 805.382L104.831 804.87L94.5236 785.707Z" fill="#271884"/>
<path d="M588.005 805.218H526.401L564.084 695.989H625.687L588.005 805.218Z" fill="#271884"/>
<path d="M526.852 804.988L525.875 805.45L538.51 832.152L539.486 831.69L526.852 804.988Z" fill="#271884"/>
<path d="M587.917 803.879L586.94 804.342L600.13 832.216L601.107 831.754L587.917 803.879Z" fill="#271884"/>
<path d="M551.331 647.283L502.048 789.943H440.517L489.8 647.283H492.61L482.09 677.976H537.858L548.377 647.283H551.331Z" fill="#271884"/>
<path d="M565.237 598L548.377 647.283H492.61L509.47 598H565.237Z" fill="#2E1D93"/>
<path d="M483.531 888.797H422L450.82 809.109H512.352L483.531 888.797Z" fill="#271884"/>
<path d="M440.986 789.697L440.034 790.209L450.342 809.373L451.293 808.861L440.986 789.697Z" fill="#271884"/>
<path d="M502.524 789.707L501.572 790.219L511.879 809.382L512.831 808.87L502.524 789.707Z" fill="#271884"/>
<path d="M996.005 809.218H934.401L972.084 699.989H1033.69L996.005 809.218Z" fill="#271884"/>
<path d="M934.852 808.988L933.875 809.45L946.51 836.152L947.486 835.69L934.852 808.988Z" fill="#271884"/>
<path d="M995.917 807.879L994.94 808.342L1008.13 836.216L1009.11 835.754L995.917 807.879Z" fill="#271884"/>
<path d="M959.331 651.283L910.048 793.943H848.517L897.8 651.283H900.61L890.09 681.976H945.858L956.377 651.283H959.331Z" fill="#271884"/>
<path d="M973.237 602L956.377 651.283H900.61L917.47 602H973.237Z" fill="#2E1D93"/>
<path d="M891.531 892.797H830L858.82 813.109H920.352L891.531 892.797Z" fill="#271884"/>
<path d="M848.986 793.697L848.034 794.209L858.342 813.373L859.293 812.861L848.986 793.697Z" fill="#271884"/>
<path d="M910.524 793.707L909.572 794.219L919.879 813.382L920.831 812.87L910.524 793.707Z" fill="#271884"/>
<path d="M471.272 581.637L455.204 627.173H399.437L415.504 581.637H471.272Z" fill="#271884"/>
<path d="M490.005 475.218H428.401L466.084 365.989H527.687L490.005 475.218Z" fill="#271884"/>
<path d="M502.614 501.949L473.794 581.637H471.272L480.71 554.978H424.943L415.504 581.637H412.262L441.082 501.949H502.614Z" fill="#2E1D93"/>
<path d="M428.852 474.988L427.875 475.45L440.51 502.152L441.486 501.69L428.852 474.988Z" fill="#271884"/>
<path d="M489.917 473.879L488.94 474.342L502.13 502.216L503.107 501.754L489.917 473.879Z" fill="#271884"/>
<path d="M453.331 317.283L404.048 459.943H342.517L391.8 317.283H394.61L384.09 347.976H439.858L450.377 317.283H453.331Z" fill="#271884"/>
<path d="M467.237 268L450.377 317.283H394.61L411.47 268H467.237Z" fill="#06CBF6"/>
<path d="M385.531 558.797H324L352.82 479.109H414.352L385.531 558.797Z" fill="#271884"/>
<path d="M342.986 459.697L342.034 460.209L352.342 479.373L353.293 478.861L342.986 459.697Z" fill="#271884"/>
<path d="M404.524 459.707L403.572 460.219L413.879 479.382L414.831 478.87L404.524 459.707Z" fill="#271884"/>
<path d="M879.272 585.637L863.204 631.173H807.437L823.504 585.637H879.272Z" fill="#271884"/>
<path d="M898.005 479.218H836.401L874.084 369.989H935.687L898.005 479.218Z" fill="#271884"/>
<path d="M910.614 505.949L881.794 585.637H879.272L888.71 558.978H832.943L823.504 585.637H820.262L849.082 505.949H910.614Z" fill="#2E1D93"/>
<path d="M836.852 478.988L835.875 479.45L848.51 506.152L849.486 505.69L836.852 478.988Z" fill="#271884"/>
<path d="M897.917 477.879L896.94 478.342L910.13 506.216L911.107 505.754L897.917 477.879Z" fill="#271884"/>
<path d="M861.331 321.283L812.048 463.943H750.517L799.8 321.283H802.61L792.09 351.976H847.858L858.377 321.283H861.331Z" fill="#4320A8"/>
<path d="M875.237 272L858.377 321.283H802.61L819.47 272H875.237Z" fill="#2E1D93"/>
<path d="M793.531 562.797H732L760.82 483.109H822.352L793.531 562.797Z" fill="#271884"/>
<path d="M750.986 463.697L750.034 464.209L760.342 483.373L761.293 482.861L750.986 463.697Z" fill="#271884"/>
<path d="M812.524 463.707L811.572 464.219L821.879 483.382L822.831 482.87L812.524 463.707Z" fill="#271884"/>
<path d="M1287.27 589.637L1271.2 635.173H1215.44L1231.5 589.637H1287.27Z" fill="#271884"/>
<path d="M1306 483.218H1244.4L1282.08 373.989H1343.69L1306 483.218Z" fill="#271884"/>
<path d="M1318.61 509.949L1289.79 589.637H1287.27L1296.71 562.978H1240.94L1231.5 589.637H1228.26L1257.08 509.949H1318.61Z" fill="#2E1D93"/>
<path d="M1244.85 482.988L1243.88 483.45L1256.51 510.152L1257.49 509.69L1244.85 482.988Z" fill="#271884"/>
<path d="M1305.92 481.879L1304.94 482.342L1318.13 510.216L1319.11 509.754L1305.92 481.879Z" fill="#271884"/>
<path d="M1269.33 325.283L1220.05 467.943H1158.52L1207.8 325.283H1210.61L1200.09 355.976H1255.86L1266.38 325.283H1269.33Z" fill="#271884"/>
<path d="M1283.24 276L1266.38 325.283H1210.61L1227.47 276H1283.24Z" fill="#2E1D93"/>
<path d="M1201.53 566.797H1140L1168.82 487.109H1230.35L1201.53 566.797Z" fill="#271884"/>
<path d="M1158.99 467.697L1158.03 468.209L1168.34 487.373L1169.29 486.861L1158.99 467.697Z" fill="#271884"/>
<path d="M1220.52 467.707L1219.57 468.219L1229.88 487.382L1230.83 486.87L1220.52 467.707Z" fill="#271884"/>
<path d="M1465.27 673.637L1449.2 719.173H1393.44L1409.5 673.637H1465.27Z" fill="#271884"/>
<path d="M1484 567.218H1422.4L1460.08 457.989H1521.69L1484 567.218Z" fill="#271884"/>
<path d="M1496.61 593.949L1467.79 673.637H1465.27L1474.71 646.978H1418.94L1409.5 673.637H1406.26L1435.08 593.949H1496.61Z" fill="#2E1D93"/>
<path d="M1422.85 566.988L1421.88 567.45L1434.51 594.152L1435.49 593.69L1422.85 566.988Z" fill="#271884"/>
<path d="M1447.33 409.283L1398.05 551.943H1336.52L1385.8 409.283H1388.61L1378.09 439.976H1433.86L1444.38 409.283H1447.33Z" fill="#271884"/>
<path d="M1461.24 360L1444.38 409.283H1388.61L1405.47 360H1461.24Z" fill="#2E1D93"/>
<path d="M1379.53 650.797H1318L1346.82 571.109H1408.35L1379.53 650.797Z" fill="#271884"/>
<path d="M1336.99 551.697L1336.03 552.209L1346.34 571.373L1347.29 570.861L1336.99 551.697Z" fill="#271884"/>
<path d="M1398.52 551.707L1397.57 552.219L1407.88 571.382L1408.83 570.87L1398.52 551.707Z" fill="#271884"/>
<path d="M396.005 789.218H334.401L372.084 679.989H433.687L396.005 789.218Z" fill="#271884"/>
<path d="M408.614 815.949L379.794 895.637H377.272L386.71 868.978H330.943L321.504 895.637H318.262L347.082 815.949H408.614Z" fill="#2E1D93"/>
<path d="M334.852 788.988L333.875 789.45L346.51 816.152L347.486 815.69L334.852 788.988Z" fill="#271884"/>
<path d="M395.917 787.879L394.94 788.342L408.13 816.216L409.107 815.754L395.917 787.879Z" fill="#271884"/>
<path d="M359.331 631.283L310.048 773.943H248.517L297.8 631.283H300.61L290.09 661.976H345.858L356.377 631.283H359.331Z" fill="#271884"/>
<path d="M373.237 582L356.377 631.283H300.61L317.47 582H373.237Z" fill="#2E1D93"/>
<path d="M291.531 872.797H230L258.82 793.109H320.352L291.531 872.797Z" fill="#271884"/>
<path d="M248.986 773.697L248.034 774.209L258.342 793.373L259.293 792.861L248.986 773.697Z" fill="#271884"/>
<path d="M310.524 773.707L309.572 774.219L319.879 793.382L320.831 792.87L310.524 773.707Z" fill="#271884"/>
<path d="M804.005 793.218H742.401L780.084 683.989H841.687L804.005 793.218Z" fill="#271884"/>
<path d="M742.852 792.988L741.875 793.45L754.51 820.152L755.486 819.69L742.852 792.988Z" fill="#271884"/>
<path d="M803.917 791.879L802.94 792.342L816.13 820.216L817.107 819.754L803.917 791.879Z" fill="#271884"/>
<path d="M767.331 635.283L718.048 777.943H656.517L705.8 635.283H708.61L698.09 665.976H753.858L764.377 635.283H767.331Z" fill="#271884"/>
<path d="M781.237 586L764.377 635.283H708.61L725.47 586H781.237Z" fill="#2E1D93"/>
<path d="M699.531 876.797H638L666.82 797.109H728.352L699.531 876.797Z" fill="#271884"/>
<path d="M656.986 777.697L656.034 778.209L666.342 797.373L667.293 796.861L656.986 777.697Z" fill="#271884"/>
<path d="M718.524 777.707L717.572 778.219L727.879 797.382L728.831 796.87L718.524 777.707Z" fill="#271884"/>
<path d="M1212 797.218H1150.4L1188.08 687.989H1249.69L1212 797.218Z" fill="#271884"/>
<path d="M1150.85 796.988L1149.88 797.45L1162.51 824.152L1163.49 823.69L1150.85 796.988Z" fill="#271884"/>
<path d="M1211.92 795.879L1210.94 796.342L1224.13 824.216L1225.11 823.754L1211.92 795.879Z" fill="#271884"/>
<path d="M1175.33 639.283L1126.05 781.943H1064.52L1113.8 639.283H1116.61L1106.09 669.976H1161.86L1172.38 639.283H1175.33Z" fill="#4320A8"/>
<path d="M1189.24 590L1172.38 639.283H1116.61L1133.47 590H1189.24Z" fill="#2E1D93"/>
<path d="M1107.53 880.797H1046L1074.82 801.109H1136.35L1107.53 880.797Z" fill="#271884"/>
<path d="M1064.99 781.697L1064.03 782.209L1074.34 801.373L1075.29 800.861L1064.99 781.697Z" fill="#271884"/>
<path d="M1126.52 781.707L1125.57 782.219L1135.88 801.382L1136.83 800.87L1126.52 781.707Z" fill="#271884"/>
<path d="M1381 900.218H1319.4L1357.08 790.989H1418.69L1381 900.218Z" fill="#271884"/>
<path d="M1344.33 742.283L1295.05 884.943H1233.52L1282.8 742.283H1285.61L1275.09 772.976H1330.86L1341.38 742.283H1344.33Z" fill="#271884"/>
<path d="M1358.24 693L1341.38 742.283H1285.61L1302.47 693H1358.24Z" fill="#2E1D93"/>
</g>
</g>
<path opacity="0.5" d="M154.555 139.909C156.136 138.835 156.997 137.175 156.43 134.673C155.66 131.253 152.54 130.471 148.738 130.614L148.126 125.806L145.218 126.173L145.804 130.856C145.036 130.956 144.259 131.067 143.482 131.178L142.882 126.465L139.975 126.842L140.588 131.649C139.956 131.741 139.345 131.831 138.733 131.911L138.732 131.9L134.722 132.399L135.118 135.528C135.118 135.528 137.262 135.218 137.235 135.253C138.418 135.1 138.881 135.739 139.072 136.319L139.771 141.793C139.854 141.783 139.958 141.769 140.085 141.774C139.992 141.786 139.888 141.799 139.774 141.814L140.746 149.48C140.743 149.862 140.602 150.484 139.772 150.592C139.818 150.618 137.653 150.856 137.653 150.856L137.514 154.425L141.304 153.944C142.01 153.853 142.708 153.783 143.383 153.696L144.002 158.556L146.909 158.189L146.297 153.382C147.078 153.302 147.847 153.213 148.626 153.112L149.236 157.898L152.143 157.532L151.525 152.683C156.389 151.777 159.655 150.103 159.493 145.438C159.373 141.659 157.424 140.226 154.555 139.909ZM143.99 134.611C145.63 134.398 150.733 133.217 151.17 136.669C151.588 139.975 146.377 140.238 144.737 140.45L143.99 134.611ZM145.922 149.837L145.109 143.402C147.081 143.146 153.195 141.792 153.677 145.588C154.135 149.207 147.894 149.581 145.922 149.837Z" fill="#FDBA46"/>
<path opacity="0.5" d="M1140.52 705.254C1142.1 704.18 1142.96 702.521 1142.39 700.018C1141.62 696.599 1138.5 695.816 1134.7 695.959L1134.09 691.152L1131.18 691.518L1131.77 696.202C1131 696.301 1130.22 696.413 1129.44 696.524L1128.84 691.81L1125.94 692.187L1126.55 696.994C1125.92 697.087 1125.31 697.177 1124.69 697.256L1124.69 697.246L1120.68 697.744L1121.08 700.873C1121.08 700.873 1123.22 700.563 1123.2 700.599C1124.38 700.445 1124.84 701.085 1125.03 701.664L1125.73 707.139C1125.82 707.128 1125.92 707.115 1126.05 707.119C1125.95 707.132 1125.85 707.145 1125.74 707.16L1126.71 714.825C1126.7 715.207 1126.56 715.83 1125.73 715.937C1125.78 715.963 1123.61 716.201 1123.61 716.201L1123.48 719.77L1127.27 719.29C1127.97 719.198 1128.67 719.129 1129.34 719.042L1129.96 723.901L1132.87 723.535L1132.26 718.727C1133.04 718.647 1133.81 718.558 1134.59 718.457L1135.2 723.244L1138.1 722.878L1137.49 718.028C1142.35 717.122 1145.62 715.448 1145.45 710.784C1145.33 707.004 1143.39 705.571 1140.52 705.254ZM1129.95 699.956C1131.59 699.744 1136.69 698.563 1137.13 702.015C1137.55 705.321 1132.34 705.583 1130.7 705.796L1129.95 699.956ZM1131.88 715.182L1131.07 708.747C1133.04 708.492 1139.16 707.137 1139.64 710.933C1140.1 714.552 1133.86 714.927 1131.88 715.182Z" fill="#FDBA46"/>
<path d="M347.994 343.3L338.5 349.1L329 343.3L338.5 327L347.994 343.3ZM338.5 350.962L329 345.163L338.5 359L348 345.163L338.5 350.962V350.962Z" fill="#4A49EF"/>
<path d="M1183.99 459.3L1174.5 465.1L1165 459.3L1174.5 443L1183.99 459.3ZM1174.5 466.962L1165 461.163L1174.5 475L1184 461.163L1174.5 466.962V466.962Z" fill="#4A49EF"/>
<path d="M83 421L80.672 422.319L74.328 425.931L72 427.25V439.75L74.328 441.069L80.7302 444.681L83.0582 446L85.3862 444.681L91.672 441.069L94 439.75V427.25L91.672 425.931L85.328 422.319L83 421ZM76.6561 437.112V429.888L83 426.275L89.3439 429.888V437.112L83 440.725L76.6561 437.112Z" fill="#2A5ADA"/>
<path opacity="0.3" d="M1032 219L1029.67 220.319L1023.33 223.931L1021 225.25V237.75L1023.33 239.069L1029.73 242.681L1032.06 244L1034.39 242.681L1040.67 239.069L1043 237.75V225.25L1040.67 223.931L1034.33 220.319L1032 219ZM1025.66 235.112V227.888L1032 224.275L1038.34 227.888V235.112L1032 238.725L1025.66 235.112Z" fill="#06CBF6"/>
<g opacity="0.5">
<path d="M180.631 653H183.955L177.037 659.746C174.532 662.188 170.47 662.188 167.963 659.746L161.042 653H164.369L169.625 658.124C170.391 658.868 171.423 659.284 172.498 659.284C173.573 659.284 174.605 658.868 175.371 658.124L180.631 653Z" fill="#D0F5FF"/>
<path d="M164.326 671.758H161L167.963 664.971C170.468 662.529 174.53 662.529 177.037 664.971L184 671.758H180.676L175.375 666.592C174.609 665.849 173.577 665.432 172.502 665.432C171.427 665.432 170.395 665.849 169.629 666.592L164.326 671.758Z" fill="#D0F5FF"/>
</g>
<g opacity="0.5">
<path d="M1326.63 83H1329.95L1323.04 89.7459C1320.53 92.1876 1316.47 92.1876 1313.96 89.7459L1307.04 83H1310.37L1315.62 88.1245C1316.39 88.8678 1317.42 89.2844 1318.5 89.2844C1319.57 89.2844 1320.6 88.8678 1321.37 88.1245L1326.63 83Z" fill="#D0F5FF"/>
<path d="M1310.33 101.758H1307L1313.96 94.9707C1316.47 92.529 1320.53 92.529 1323.04 94.9707L1330 101.758H1326.68L1321.38 96.5921C1320.61 95.8488 1319.58 95.4322 1318.5 95.4322C1317.43 95.4322 1316.39 95.8488 1315.63 96.5921L1310.33 101.758Z" fill="#D0F5FF"/>
</g>
</svg>
